<?xml version="1.0" standalone="no"?>
<!DOCTYPE svg PUBLIC "-//W3C//DTD SVG 20010904//EN"
 "http://www.w3.org/TR/2001/REC-SVG-20010904/DTD/svg10.dtd">
<svg version="1.0" xmlns="http://www.w3.org/2000/svg"
 width="1412.000000pt" height="1415.000000pt" viewBox="0 0 1412.000000 1415.000000"
 preserveAspectRatio="xMidYMid meet">

<g transform="translate(0.000000,1415.000000) scale(0.100000,-0.100000)"
fill="#000000" stroke="none">
<path d="M0 7075 l0 -7075 7060 0 7060 0 0 7075 0 7075 -7060 0 -7060 0 0
-7075z m14035 0 l0 -6990 -6975 0 -6975 0 -3 6980 c-1 3839 0 6986 3 6993 3
10 1404 12 6977 10 l6973 -3 0 -6990z"/>
<path d="M1470 12180 l0 -1050 1690 0 1690 0 2 483 c2 265 2 737 0 1050 l-2
567 -1690 0 -1690 0 0 -1050z m848 982 c-40 -48 -799 -862 -804 -862 -2 0 -4
200 -4 445 l0 445 416 0 416 0 -24 -28z m1142 23 c0 -3 -419 -458 -931 -1010
l-931 -1005 -44 0 -44 0 0 529 0 529 418 449 c229 247 428 463 442 480 l25 32
533 0 c292 1 532 -1 532 -4z m1178 -34 c-18 -22 -438 -476 -933 -1010 l-900
-971 -574 0 -575 0 36 38 c205 216 1818 1965 1818 1972 0 6 219 10 581 10
l581 0 -34 -39z m162 -503 l0 -543 -391 -420 c-215 -231 -411 -441 -436 -468
l-44 -47 -531 2 -530 3 904 976 c498 537 916 991 929 1007 19 24 32 31 62 31
l37 1 0 -542z m-3 -1475 c-2 -2 -184 -2 -404 -1 l-401 3 402 432 401 432 3
-431 c1 -237 1 -433 -1 -435z"/>
<path d="M9293 13163 c-10 -4 -13 -224 -13 -1054 l0 -1049 1690 0 1690 0 -2
1053 -3 1052 -1675 2 c-921 1 -1681 -1 -1687 -4z m826 -80 c-20 -21 -188 -202
-374 -403 -186 -201 -357 -385 -381 -410 l-44 -45 0 448 0 447 417 0 417 0
-35 -37z m1134 13 c-10 -13 -429 -467 -932 -1010 l-915 -986 -43 0 -43 0 0
530 0 530 402 433 c220 237 420 453 442 478 l41 47 533 1 534 1 -19 -24z
m1175 -35 c-29 -33 -449 -487 -933 -1010 l-880 -950 -574 -1 -575 0 26 28 c14
15 420 455 904 977 483 523 890 964 904 982 l25 32 578 0 579 1 -54 -59z m181
-483 l0 -543 -411 -440 c-225 -242 -421 -452 -433 -468 l-24 -27 -533 2 -532
3 888 960 c489 528 908 981 930 1006 34 40 47 47 79 48 l37 1 -1 -542z m-2
-1475 c-2 -2 -184 -2 -405 -1 l-401 3 402 433 402 433 3 -432 c1 -238 1 -434
-1 -436z"/>
<path d="M5592 11733 l3 -958 1510 0 1510 0 3 958 2 957 -1515 0 -1515 0 2
-957z"/>
<path d="M2090 7077 l0 -3013 33 -12 c49 -17 9835 -17 9884 0 l33 12 0 3007
c0 2733 -1 3007 -16 3013 -9 3 -2247 6 -4975 6 l-4959 0 0 -3013z"/>
<path d="M3537 3403 c-4 -3 -7 -426 -7 -939 0 -840 2 -932 16 -938 9 -3 1599
-6 3535 -6 l3519 0 0 945 0 945 -3528 0 c-1941 0 -3532 -3 -3535 -7z m7003
-933 l0 -880 -3470 0 -3470 0 0 873 c0 481 3 877 7 880 3 4 1565 7 3470 7
l3463 0 0 -880z"/>
<path d="M6800 2935 c-168 -47 -260 -185 -260 -389 0 -142 42 -260 119 -329
53 -47 84 -63 159 -77 177 -35 335 44 392 197 11 31 19 57 18 58 -11 8 -94 23
-99 17 -4 -4 -12 -25 -19 -46 -16 -51 -87 -122 -136 -135 -132 -37 -258 24
-304 147 -40 107 -36 263 10 352 74 144 286 176 384 59 16 -19 33 -46 39 -62
9 -27 12 -28 51 -22 66 11 68 17 35 80 -31 59 -85 111 -142 135 -66 29 -174
35 -247 15z"/>
<path d="M8597 2940 c-153 -39 -257 -165 -276 -336 -29 -255 109 -450 332
-471 162 -15 306 68 375 215 25 53 27 67 27 187 0 112 -4 138 -23 187 -53 130
-175 217 -318 224 -44 2 -96 -1 -117 -6z m206 -104 c54 -26 96 -72 126 -136
23 -48 26 -68 26 -160 0 -99 -2 -110 -33 -172 -19 -39 -46 -77 -67 -92 -104
-80 -254 -73 -346 16 -54 52 -79 113 -86 203 -17 228 91 370 277 362 37 -2 81
-11 103 -21z"/>
<path d="M4310 2540 l0 -400 50 0 50 0 0 180 0 180 185 0 185 0 0 45 0 45
-185 0 -185 0 0 130 0 130 215 0 215 0 0 45 0 45 -265 0 -265 0 0 -400z"/>
<path d="M4980 2662 c0 -380 15 -431 145 -497 55 -27 68 -30 160 -30 121 1
186 25 241 88 59 69 64 105 64 429 l0 288 -49 0 -50 0 -3 -292 c-3 -262 -5
-297 -22 -330 -28 -57 -74 -81 -165 -85 -65 -4 -83 -1 -120 19 -53 27 -79 60
-91 114 -5 21 -10 159 -10 307 l0 267 -50 0 -50 0 0 -278z"/>
<path d="M5780 2541 l0 -401 45 0 45 0 2 313 3 312 207 -312 207 -313 51 0 50
0 0 400 0 400 -45 0 -45 0 0 -310 c0 -170 -3 -310 -7 -310 -5 1 -98 139 -209
308 l-201 307 -51 3 -52 3 0 -400z"/>
<path d="M7310 2895 l0 -45 130 0 130 0 0 -355 0 -355 50 0 50 0 0 355 0 355
130 0 130 0 0 45 0 45 -310 0 -310 0 0 -45z"/>
<path d="M8050 2540 l0 -400 55 0 55 0 0 400 0 400 -55 0 -55 0 0 -400z"/>
<path d="M9200 2541 l0 -401 45 0 45 0 2 313 3 312 207 -312 207 -313 51 0 50
0 0 400 0 400 -45 0 -45 0 0 -310 c0 -170 -3 -310 -7 -310 -5 1 -98 139 -209
308 l-201 307 -51 3 -52 3 0 -400z"/>
<path d="M732 2458 l3 -943 928 -3 927 -2 0 945 0 945 -930 0 -930 0 2 -942z
m1843 2 l0 -875 -912 -3 -913 -2 0 880 0 880 913 -2 912 -3 0 -875z"/>
<path d="M1705 2851 l-690 -288 0 -128 0 -128 695 -289 c382 -158 700 -288
707 -288 10 0 13 30 13 124 l0 123 -566 228 c-329 133 -560 231 -552 236 7 3
262 107 566 229 l552 223 0 123 c0 112 -2 124 -17 123 -10 0 -328 -130 -708
-288z"/>
<path d="M11582 2458 l3 -943 928 -3 927 -2 0 945 0 945 -930 0 -930 0 2 -942z
m1843 2 l0 -875 -912 -3 -913 -2 0 880 0 880 913 -2 912 -3 0 -875z"/>
<path d="M11862 3045 l3 -128 548 -222 c302 -122 549 -225 550 -229 1 -5 -245
-108 -548 -230 l-550 -223 -3 -128 c-2 -118 -1 -127 15 -123 10 3 324 132 698
288 374 155 686 285 693 287 9 4 12 39 12 128 0 89 -3 124 -12 128 -7 2 -319
132 -693 287 -374 156 -688 285 -698 288 -16 4 -17 -5 -15 -123z"/>
</g>
</svg>
