<svg version="1.0" xmlns="http://www.w3.org/2000/svg" width="1882.667" height="1886.667" viewBox="0 0 1412 1415"><path d="M0 707.5V1415h1412V0H0v707.5zm1403.5 0v699H8.5l-.3-698c-.1-383.9 0-698.6.3-699.3.3-1 140.4-1.2 697.7-1l697.3.3v699z"/><path d="M147 197v105h338l.2-48.3c.2-26.5.2-73.7 0-105L485 92H147v105zm84.8-98.2c-4 4.8-79.9 86.2-80.4 86.2-.2 0-.4-20-.4-44.5V96h83.2l-2.4 2.8zM346 96.5c0 .3-41.9 45.8-93.1 101L159.8 298H151V192.2l41.8-44.9c22.9-24.7 42.8-46.3 44.2-48l2.5-3.2h53.3c29.2-.1 53.2.1 53.2.4zm117.8 3.4c-1.8 2.2-43.8 47.6-93.3 101l-90 97.1H165.6l3.6-3.8C189.7 272.6 351 97.7 351 97c0-.6 21.9-1 58.1-1h58.1l-3.4 3.9zm16.2 50.3v54.3l-39.1 42c-21.5 23.1-41.1 44.1-43.6 46.8l-4.4 4.7-53.1-.2-53-.3 90.4-97.6c49.8-53.7 91.6-99.1 92.9-100.7 1.9-2.4 3.2-3.1 6.2-3.1l3.7-.1v54.2zm-.3 147.5c-.2.2-18.4.2-40.4.1l-40.1-.3 40.2-43.2 40.1-43.2.3 43.1c.1 23.7.1 43.3-.1 43.5zM929.3 98.7c-1 .4-1.3 22.4-1.3 105.4V309h338l-.2-105.3-.3-105.2-167.5-.2c-92.1-.1-168.1.1-168.7.4zm82.6 8c-2 2.1-18.8 20.2-37.4 40.3-18.6 20.1-35.7 38.5-38.1 41l-4.4 4.5V103h83.4l-3.5 3.7zm113.4-1.3c-1 1.3-42.9 46.7-93.2 101L940.6 305H932V199l40.2-43.3c22-23.7 42-45.3 44.2-47.8l4.1-4.7 53.3-.1 53.4-.1-1.9 2.4zm117.5 3.5c-2.9 3.3-44.9 48.7-93.3 101l-88 95-57.4.1h-57.5l2.6-2.8c1.4-1.5 42-45.5 90.4-97.7 48.3-52.3 89-96.4 90.4-98.2l2.5-3.2h57.8l57.9-.1-5.4 5.9zm18.1 48.3v54.3l-41.1 44c-22.5 24.2-42.1 45.2-43.3 46.8l-2.4 2.7-53.3-.2-53.2-.3 88.8-96c48.9-52.8 90.8-98.1 93-100.6 3.4-4 4.7-4.7 7.9-4.8l3.7-.1-.1 54.2zm-.2 147.5c-.2.2-18.4.2-40.5.1l-40.1-.3 40.2-43.3 40.2-43.3.3 43.2c.1 23.8.1 43.4-.1 43.6zM559.2 241.7l.3 95.8h302l.3-95.8.2-95.7H559l.2 95.7zM209 707.3v301.3l3.3 1.2c4.9 1.7 983.5 1.7 988.4 0l3.3-1.2V707.9c0-273.3-.1-300.7-1.6-301.3-.9-.3-224.7-.6-497.5-.6H209v301.3zM353.7 1074.7c-.4.3-.7 42.6-.7 93.9 0 84 .2 93.2 1.6 93.8.9.3 159.9.6 353.5.6H1060v-189H707.2c-194.1 0-353.2.3-353.5.7zM1054 1168v88H360v-87.3c0-48.1.3-87.7.7-88 .3-.4 156.5-.7 347-.7H1054v88z"/><path d="M680 1121.5c-16.8 4.7-26 18.5-26 38.9 0 14.2 4.2 26 11.9 32.9 5.3 4.7 8.4 6.3 15.9 7.7 17.7 3.5 33.5-4.4 39.2-19.7 1.1-3.1 1.9-5.7 1.8-5.8-1.1-.8-9.4-2.3-9.9-1.7-.4.4-1.2 2.5-1.9 4.6-1.6 5.1-8.7 12.2-13.6 13.5-13.2 3.7-25.8-2.4-30.4-14.7-4-10.7-3.6-26.3 1-35.2 7.4-14.4 28.6-17.6 38.4-5.9 1.6 1.9 3.3 4.6 3.9 6.2.9 2.7 1.2 2.8 5.1 2.2 6.6-1.1 6.8-1.7 3.5-8-3.1-5.9-8.5-11.1-14.2-13.5-6.6-2.9-17.4-3.5-24.7-1.5zM859.7 1121c-15.3 3.9-25.7 16.5-27.6 33.6-2.9 25.5 10.9 45 33.2 47.1 16.2 1.5 30.6-6.8 37.5-21.5 2.5-5.3 2.7-6.7 2.7-18.7 0-11.2-.4-13.8-2.3-18.7-5.3-13-17.5-21.7-31.8-22.4-4.4-.2-9.6.1-11.7.6zm20.6 10.4c5.4 2.6 9.6 7.2 12.6 13.6 2.3 4.8 2.6 6.8 2.6 16 0 9.9-.2 11-3.3 17.2-1.9 3.9-4.6 7.7-6.7 9.2-10.4 8-25.4 7.3-34.6-1.6-5.4-5.2-7.9-11.3-8.6-20.3-1.7-22.8 9.1-37 27.7-36.2 3.7.2 8.1 1.1 10.3 2.1zM431 1161v40h10v-36h37v-9h-37v-26h43v-9h-53v40zM498 1148.8c0 38 1.5 43.1 14.5 49.7 5.5 2.7 6.8 3 16 3 12.1-.1 18.6-2.5 24.1-8.8 5.9-6.9 6.4-10.5 6.4-42.9V1121h-9.9l-.3 29.2c-.3 26.2-.5 29.7-2.2 33-2.8 5.7-7.4 8.1-16.5 8.5-6.5.4-8.3.1-12-1.9-5.3-2.7-7.9-6-9.1-11.4-.5-2.1-1-15.9-1-30.7V1121h-10v27.8zM578 1160.9v40.1h9l.2-31.3.3-31.2 20.7 31.2 20.7 31.3H639v-80h-9v31c0 17-.3 31-.7 31-.5-.1-9.8-13.9-20.9-30.8l-20.1-30.7-5.1-.3-5.2-.3v40zM731 1125.5v4.5h26v71h10v-71h26v-9h-62v4.5zM805 1161v40h11v-80h-11v40zM920 1160.9v40.1h9l.2-31.3.3-31.2 20.7 31.2 20.7 31.3H981v-80h-9v31c0 17-.3 31-.7 31-.5-.1-9.8-13.9-20.9-30.8l-20.1-30.7-5.1-.3-5.2-.3v40zM73.2 1169.2l.3 94.3 92.8.3 92.7.2v-189H73l.2 94.2zm184.3-.2v87.5l-91.2.3-91.3.2v-176l91.3.2 91.2.3v87.5z"/><path d="m170.5 1129.9-69 28.8v25.6l69.5 28.9c38.2 15.8 70 28.8 70.7 28.8 1 0 1.3-3 1.3-12.4v-12.3l-56.6-22.8c-32.9-13.3-56-23.1-55.2-23.6.7-.3 26.2-10.7 56.6-22.9l55.2-22.3v-12.3c0-11.2-.2-12.4-1.7-12.3-1 0-32.8 13-70.8 28.8zM1158.2 1169.2l.3 94.3 92.8.3 92.7.2v-189h-186l.2 94.2zm184.3-.2v87.5l-91.2.3-91.3.2v-176l91.3.2 91.2.3v87.5z"/><path d="m1186.2 1110.5.3 12.8 54.8 22.2c30.2 12.2 54.9 22.5 55 22.9.1.5-24.5 10.8-54.8 23l-55 22.3-.3 12.8c-.2 11.8-.1 12.7 1.5 12.3 1-.3 32.4-13.2 69.8-28.8 37.4-15.5 68.6-28.5 69.3-28.7.9-.4 1.2-3.9 1.2-12.8s-.3-12.4-1.2-12.8c-.7-.2-31.9-13.2-69.3-28.7-37.4-15.6-68.8-28.5-69.8-28.8-1.6-.4-1.7.5-1.5 12.3z"/></svg>